# xmcd
# 
# Track frame offsets:
#     150
#     19050
#     36122
#     49580
#     68474
#     83469
#     99718
#     117287
# 
# Disc length: 1845
# 
# Revision: 0
# Processed by: cddbd v1.5.2PL0 Copyright (c) Steve Scherf et al.
# Submitted via: fre:ac v1.0.27
# 
DISCID=56073308
DTITLE=Paul Nipper - Rumble Strips
DYEAR=2016
DGENRE=Country
TTITLE0=Wilder Than The West
TTITLE1=White Picket Fences and Meon Lights
TTITLE2=Take A Trip With Me
TTITLE3=The Road
TTITLE4=HonkyTonk Devil
TTITLE5=Moonshiner
TTITLE6=Brand New Chevelle
TTITLE7=Long Way To Minnesota
EXTD=
EXTT0=
EXTT1=
EXTT2=
EXTT3=
EXTT4=
EXTT5=
EXTT6=
EXTT7=
PLAYORDER=
